<?xml version="1.0" standalone="no"?>
<!DOCTYPE svg PUBLIC "-//W3C//DTD SVG 20010904//EN"
 "http://www.w3.org/TR/2001/REC-SVG-20010904/DTD/svg10.dtd">
<svg version="1.0" xmlns="http://www.w3.org/2000/svg"
 width="432.000000pt" height="407.000000pt" viewBox="0 0 432.000000 407.000000"
 preserveAspectRatio="xMidYMid meet">
<metadata>
Created by potrace 1.12, written by Peter Selinger 2001-2015
</metadata>
<g transform="translate(0.000000,407.000000) scale(0.100000,-0.100000)"
fill="#000000" stroke="none">
<path d="M0 3061 c0 -4 64 -15 143 -24 430 -52 775 -101 773 -111 -2 -6 -1 -8
1 -3 3 4 21 7 41 6 34 -1 35 -2 12 -10 -19 -7 -16 -8 16 -4 23 3 109 -4 190
-15 82 -11 257 -34 388 -50 132 -17 241 -32 243 -33 7 -7 -505 -17 -1147 -23
-360 -4 -657 -8 -659 -10 -2 -2 -2 -6 1 -9 12 -13 1150 1 1773 21 164 5 238 2
410 -15 529 -52 1084 -76 1550 -67 409 8 585 17 585 29 0 6 -23 7 -57 3 -129
-14 -973 -18 -1238 -7 -341 15 -892 57 -882 67 1 2 165 10 362 19 386 16 491
21 1230 60 476 25 591 33 582 41 -2 2 -204 -7 -448 -21 -517 -29 -1148 -59
-1573 -76 -233 -9 -324 -9 -415 0 -147 16 -561 67 -666 83 -76 12 -78 13 -40
19 26 4 5 6 -60 6 -55 0 -109 1 -120 3 -11 1 -117 15 -235 31 -118 15 -323 42
-455 59 -132 16 -255 32 -272 34 -18 3 -33 1 -33 -3z"/>
</g>
</svg>
